<?xml version="1.0" standalone="no"?><!DOCTYPE svg PUBLIC "-//W3C//DTD SVG 1.1//EN" "http://www.w3.org/Graphics/SVG/1.1/DTD/svg11.dtd"><svg t="1720236423099" class="icon" viewBox="0 0 1049 1024" version="1.1" xmlns="http://www.w3.org/2000/svg" p-id="784" data-darkreader-inline-fill="" xmlns:xlink="http://www.w3.org/1999/xlink" width="204.8828125" height="200"><path d="M25.6 455.68c0 14.336 1.024 15.36 20.48 15.36s20.48-1.024 20.48-15.36-1.024-15.36-20.48-15.36-20.48 1.024-20.48 15.36zM962.56 471.04c0 16.896-1.536 20.48-10.24 20.48-7.168 0-10.24 3.584-10.24 12.288 0 7.68 3.584 13.312 10.24 14.848 9.216 2.56 10.24 7.168 10.24 58.368 0 36.352 2.048 57.856 6.144 61.952 3.584 3.584 15.872 6.144 28.16 6.144 19.968 0 22.016-1.024 22.016-12.288 0-7.68-3.584-13.312-10.24-14.848-9.216-2.56-10.24-7.168-10.24-51.712 0-45.568 0.512-49.152 10.24-49.152 7.68 0 10.24-3.584 10.24-12.8s-2.56-12.8-10.24-12.8c-8.704 0-10.24-3.584-10.24-20.48 0-19.968-0.512-20.48-17.92-20.48s-17.92 0.512-17.92 20.48zM128 489.984c-22.016 4.096-35.84 21.504-35.84 45.056 0 25.6 7.68 33.792 43.52 47.104 20.992 7.68 25.6 11.776 25.6 21.504 0 23.552-31.232 28.16-36.864 5.632-2.048-7.68-7.168-10.24-20.48-10.24-16.896 0-17.92 0.512-14.336 13.824 6.144 25.6 19.968 34.816 53.248 34.816 39.936 0 56.832-13.824 56.832-46.08 0-25.6-8.704-34.816-43.008-46.592-34.816-11.776-43.008-35.84-13.312-38.912 9.216-1.024 14.336 2.048 17.92 9.728 3.584 8.192 9.216 11.776 18.944 11.776 12.288 0 14.336-2.048 14.336-15.36 0-23.04-32.256-38.4-66.56-32.256zM261.12 490.496c-20.992 3.072-34.816 20.48-40.96 50.176-6.656 31.744 0 80.384 13.312 94.72 19.968 22.016 78.336 15.36 91.648-10.752 12.8-25.088 10.24-35.84-9.216-35.84-14.336 0-17.408 2.048-21.504 16.384-6.144 19.456-21.504 25.088-31.744 11.264-8.192-10.752-9.216-75.264-1.536-89.6 9.728-17.408 35.84-9.216 35.84 11.776 0 7.168 4.096 9.216 17.92 9.216 15.872 0 17.92-1.536 17.92-12.8 0-27.648-36.864-50.688-71.68-44.544zM393.728 489.984c-7.68 1.024-18.944 7.68-25.6 14.848-10.752 11.264-12.288 18.944-13.824 57.856-2.56 56.832 5.12 74.24 34.816 82.944 26.112 7.68 57.856-0.512 69.632-18.432 10.752-16.896 14.848-71.168 7.68-98.816-8.192-30.208-35.328-44.544-72.704-38.4z m28.16 29.696c4.096 4.096 8.704 19.968 10.24 34.304 5.632 51.712-10.24 82.944-32.256 63.488-9.216-8.192-10.752-15.872-10.752-47.616 0-30.72 2.048-39.424 10.24-47.616 12.288-12.288 12.8-12.288 22.528-2.56zM558.08 489.984c-4.096 1.536-12.8 7.68-18.944 13.312l-11.776 10.24v-10.752c0-9.216-3.072-11.264-15.36-11.264h-15.36v153.6h35.84v-53.248c0-56.832 1.536-60.928 27.136-67.072 11.776-3.072 13.824-6.144 13.824-20.992 0-17.408-1.536-18.944-15.36-13.824zM655.36 490.496c-4.096 1.024-12.8 7.168-18.944 12.8l-11.776 10.24v-10.752c0-9.216-3.072-11.264-17.92-11.264H588.8v153.6h40.96v-53.248c0-57.344 3.072-65.024 28.16-66.56 10.752-0.512 12.8-3.072 12.8-16.896 0-17.92-3.584-22.016-15.36-17.92zM716.8 493.056c-27.136 9.216-36.864 32.256-34.816 83.968 1.536 35.328 3.072 43.52 13.824 54.784 24.064 25.6 81.408 19.968 92.672-9.728 8.704-23.04 6.656-28.16-12.288-28.16-14.336 0-17.92 2.048-19.456 10.752-1.024 6.144-5.632 13.824-10.752 16.896-7.68 4.608-11.264 3.584-19.456-6.656-5.12-6.656-9.728-18.432-9.728-26.624V573.44h76.8v-23.04c0-33.28-11.264-52.224-34.816-58.368-22.528-6.656-19.456-6.656-41.984 1.024z m40.96 44.544c0 14.336-1.024 15.36-20.48 15.36-16.896 0-20.48-1.536-20.48-10.24 0-5.632 4.608-14.848 10.24-20.48 14.336-14.336 30.72-5.632 30.72 15.36zM856.576 491.52c-9.216 2.048-19.968 6.656-24.064 10.24-13.312 10.752-19.968 40.96-17.408 80.384 2.048 32.768 4.608 39.936 15.872 51.712 11.776 11.264 18.432 13.312 42.496 13.312 25.088 0 30.208-1.536 40.96-13.824 7.168-8.192 12.288-20.992 12.288-29.696 0-14.336-1.024-15.36-16.384-13.824-12.8 1.024-17.408 4.608-19.456 13.824-4.096 18.432-18.432 25.6-29.184 14.848-11.264-11.776-15.36-65.024-6.656-86.528 5.12-12.288 9.216-14.848 19.968-13.824 8.704 1.024 13.824 5.632 15.872 14.336 2.048 9.728 6.656 13.312 19.456 14.336 15.36 1.536 16.384 0.512 16.384-14.336 0-16.896-18.944-40.96-32.768-40.96-4.096 0-10.24-1.024-14.336-2.048-3.584-1.024-14.336 0-23.04 2.048zM25.6 568.32v76.8h40.96V491.52H25.6v76.8z" fill="#666666" p-id="785" data-darkreader-inline-fill="" style="--darkreader-inline-fill: #60666a;"></path><path d="M166.4 776.192c-5.632 1.536-43.008 12.8-82.944 25.6C7.68 825.344 0.512 830.464 4.608 857.6c4.096 29.184 21.504 29.696 109.056 2.048 78.336-24.576 82.432-24.576 151.552 7.68 88.064 40.448 101.376 40.96 187.392 7.68 28.16-11.264 59.392-19.968 70.144-19.968 10.752 0 41.472 9.728 74.24 24.064 81.408 34.816 96.768 35.328 178.688 2.048 39.424-15.872 73.216-26.112 84.992-26.112 11.264 0 46.592 5.632 79.36 12.8 65.536 14.336 89.088 15.872 98.304 6.656 9.216-9.216 7.168-37.376-3.072-46.592-10.752-9.728-144.896-39.424-178.176-39.424-16.384 0-43.008 7.68-87.04 25.6-34.816 14.336-71.168 25.6-80.896 25.6-9.728 0-42.496-10.752-73.216-24.064-48.64-21.504-59.904-24.576-91.136-24.576-30.208 0-44.544 3.584-91.136 21.504-30.208 12.288-60.928 22.016-68.608 22.016-7.168 0-41.472-12.8-75.776-28.16-60.928-27.648-97.792-36.352-122.88-30.208z" fill="#E33128" p-id="786" data-darkreader-inline-fill="" style="--darkreader-inline-fill: #c92d26;"></path></svg>